# xmcd
#
# Track frame offsets:
#	150
#	13411
#	26320
#	42938
#	58313
#	73016
#	87059
#	103077
#	115062
#	128570
#	144072
#	157910
#	173224
#	186407
#	201823
#
# Disc length: 2905 seconds
#
# Revision: 1
# Processed by: cddbd v1.5.2PL0 Copyright (c) Steve Scherf et al.
# Submitted via: EZCDAudioConverter 3.1.5.1
#
DISCID=c70b570f
DTITLE=Ρεμπέτικη Τετράς - Πίνω Και Μεθώ
DYEAR=1997
DGENRE=Rebetiko
TTITLE0=Μπάμπης Τσέρτος - Φυσάει Ο Μπάτης
TTITLE1=Αγάθωνας Ιακωβίδης - Πέντε Μάγκες Στον Περαία
TTITLE2=Γλυκερία - Πάμε γιά τη Βούλα
TTITLE3=Μπάμπης Γκολές - Δεν πάει κάτω το Κρασί
TTITLE4=Μπάμπης Τσέρτος - Σβήσε Με Απ' Το Χάρτη
TTITLE5=Αγάθωνας Ιακωβίδης - Σούρα και Μαστούρα
TTITLE6=Γλυκερία - Στη Μαγεμένη Αραπιά
TTITLE7=Μπάμπης Γκολές - Μα είναι και Θεός
TTITLE8=Αγάθωνας Ιακωβίδης - Ο τεκετζής
TTITLE9=Γλυκερία and Μπάμπης Τσέρτος - Μυστικό Να Το Χεις Πρέπει
TTITLE10=Μπάμπης Γκολές - Μάγισσες Φέρτε Βότανα
TTITLE11=Αγάθωνας Ιακωβίδης - Το Παιχνίδι Του Αμερικάνου
TTITLE12=Μπάμπης Τσέρτος - Πίνω Και Μεθώ
TTITLE13=Γλυκερία - Ο Μπουφετζής
TTITLE14=Αγάθωνας Ιακωβίδης - To Xaremi Sto Xamam
EXTD=
EXTT0=
EXTT1=
EXTT2=
EXTT3=
EXTT4=
EXTT5=
EXTT6=
EXTT7=
EXTT8=
EXTT9=
EXTT10=
EXTT11=
EXTT12=
EXTT13=
EXTT14=
PLAYORDER=
